# xmcd
#
# Track frame offsets:
#	150
#	11624
#	24286
#	38627
#	49239
#	62268
#	74706
#	86452
#	98938
#	111007
#	123458
#	132522
#	144088
#	154772
#	169987
#
# Disc length: 2441 seconds
# Revision: 0
# Processed by: cddbd v1.5.2PL0 Copyright (c) Steve Scherf et al.
# Submitted via: dBpowerAMP V12.0
#
DISCID=c409870f
DTITLE=Jim Coleman - The Guitar That Made America Great
DYEAR=2001
DGENRE=Country
TTITLE0=The Odd Folks Of Okracoke
TTITLE1=Cheek To Cheek
TTITLE2=The Petite Waltz
TTITLE3=Arkansas Traveler
TTITLE4=Vincent
TTITLE5=Waitin' For Suzy B
TTITLE6=Happy Again
TTITLE7=To B Or Not To B
TTITLE8=Swedish Rhapsody
TTITLE9=Ave Maria
TTITLE10=Mr. Sandman
TTITLE11=Waltz For The Lonely
TTITLE12=Drive In
TTITLE13=Mr. Bojangles
TTITLE14=I Still Can't Say Goodbye
EXTD=
EXTT0=
EXTT1=
EXTT2=
EXTT3=
EXTT4=
EXTT5=
EXTT6=
EXTT7=
EXTT8=
EXTT9=
EXTT10=
EXTT11=
EXTT12=
EXTT13=
EXTT14=
PLAYORDER=
